/* XPM */
static char *e80863cae9294fc9db3de8885b4518e4GkTSbDMoG5lsrImX[] = {
/* columns rows colors chars-per-pixel */
"32 32 186 2 ",
"   c #010101",
".  c #0B0501",
"X  c #0D0B05",
"o  c #0C0C0C",
"O  c #140302",
"+  c #190606",
"@  c #161206",
"#  c #1B1507",
"$  c #12110C",
"%  c #1C140B",
"&  c #121212",
"*  c #1C1A13",
"=  c #1B1B1B",
"-  c #2B0807",
";  c #3A0706",
":  c #231A0B",
">  c #241B0B",
",  c #261411",
"<  c #2D2A05",
"1  c #2B210D",
"2  c #33230D",
"3  c #32280C",
"4  c #2A2615",
"5  c #23201D",
"6  c #322311",
"7  c #332715",
"8  c #3C2D12",
"9  c #3C3814",
"0  c #242424",
"q  c #282822",
"w  c #2A2A2A",
"e  c #3B2825",
"r  c #333333",
"t  c #3C3C3C",
"y  c #470707",
"u  c #560000",
"i  c #5F1F11",
"p  c #750C0C",
"a  c #7C120E",
"s  c #601C1C",
"d  c #741111",
"f  c #412A0E",
"g  c #5C3309",
"h  c #412C14",
"j  c #473116",
"k  c #483717",
"l  c #4C3416",
"z  c #493418",
"x  c #573B1C",
"c  c #5A3E1B",
"v  c #6F3C06",
"b  c #6D2B1F",
"n  c #552F2F",
"m  c #7F2121",
"M  c #713421",
"N  c #4E4010",
"B  c #645F08",
"V  c #634119",
"C  c #7C4916",
"Z  c #745014",
"A  c #7A531E",
"S  c #54452B",
"D  c #4D4932",
"F  c #6D582A",
"G  c #7B5826",
"H  c #605E30",
"J  c #796526",
"K  c #796634",
"L  c #3B3B4C",
"P  c #3E3E53",
"I  c #3F3F5B",
"U  c #434343",
"Y  c #464647",
"T  c #4B4B4B",
"R  c #545454",
"E  c #5C5C5C",
"W  c #665757",
"Q  c #696544",
"!  c #424260",
"~  c #646464",
"^  c #6C6C6C",
"/  c gray46",
"(  c #7C7C7C",
")  c #820000",
"_  c #991D1A",
"`  c #9F201B",
"'  c #922C2C",
"]  c #AF2E2B",
"[  c #B72222",
"{  c #D30707",
"}  c #C51A1A",
"|  c #CD1E1E",
" . c #CA2928",
".. c #DC2626",
"X. c #DF3131",
"o. c #E82C2C",
"O. c #E83737",
"+. c #95550F",
"@. c #854B17",
"#. c #885519",
"$. c #95690A",
"%. c #B1620D",
"&. c #B76217",
"*. c #8E5A32",
"=. c #AD4E2B",
"-. c #AE522A",
";. c #A9503F",
":. c #8F792B",
">. c #8D6934",
",. c #8B7331",
"<. c #9B7433",
"1. c #EB5435",
"2. c #CB7528",
"3. c #C87F36",
"4. c #875656",
"5. c #975A5A",
"6. c #BB4F4F",
"7. c #A95A49",
"8. c #A25F5F",
"9. c #957144",
"0. c #A56A6A",
"q. c #A87F7F",
"w. c #DB4E4D",
"e. c #F54A4A",
"r. c #EF5252",
"t. c #D26767",
"y. c #F27070",
"u. c #AF8415",
"i. c #888225",
"p. c #B29231",
"a. c #ADA124",
"s. c #B1AD2C",
"d. c #B5B02F",
"f. c #B2AF33",
"g. c #B9B439",
"h. c #D8AA1E",
"j. c #C08D20",
"k. c #D09535",
"l. c #E5952A",
"z. c #C6A828",
"x. c #DCB23E",
"c. c #F7C33E",
"v. c #F9E332",
"b. c #A98747",
"n. c #A5955B",
"m. c #BF915B",
"M. c #8E8C76",
"N. c #9F9876",
"B. c #A69966",
"V. c #A59A78",
"C. c #BCAE6E",
"Z. c #DC9A58",
"A. c #DAA24F",
"S. c #DCAC54",
"D. c #DFB65A",
"F. c #DCBA58",
"G. c #E2BC59",
"H. c #F18168",
"J. c #C7A667",
"K. c #D7AD61",
"L. c #E3C241",
"P. c #F2D54E",
"I. c #F4C869",
"U. c #848484",
"Y. c #888783",
"T. c #8C8C8C",
"R. c #939393",
"E. c #9C9C9C",
"W. c #AA8B8B",
"Q. c #A4A4A4",
"!. c #AAAAAA",
"~. c #B3B3B3",
"^. c #BBBBBB",
"/. c #EB8986",
"(. c #EAA293",
"). c #E1CF8C",
"_. c #F3D1AB",
"`. c #F4F0A7",
"'. c #F0EDBC",
"]. c #FBF8B2",
"[. c #C5C5C5",
"{. c #CCCCCC",
"}. c #D3D3D3",
"|. c #DDDDDD",
" X c #E7E7E7",
".X c #FAF8E0",
/* pixels */
"w w w w w w 0 0 0 0 0 w w w w w w w w w w 0 0 0 0 0 0 0 w w 0 0 ",
"/ Y.Y.U.( T Y U T E T ^ E.Q.E.Q.E.E.E.Q.( R R T U Y T Y.Q.R.E.E ",
"E.^.~.R.^ R ~ T E.{.!.U.}.}.[.[.{.[.[.[.( R.|.^.~ ~ R ( E.Q.R.~ ",
"Q.E.( R E R.~.R.U.Q.Q.( !.^.!.!.!.Q.!.E.( ^.~.T.U.~.^ R ^ R.R.~ ",
"Q.T.R R Q.{.~.~.T.^ T.U.~ R.( ( ( ( ( ^ R.~.U.( ~.~.Q./ R ~ T.~ ",
"U.^ T ^ T.!.!.!.!.U.E R U r w w w w 0 w ~ ( ( ~.~.Q.Q.T.R U Y t ",
"t L E. XR.E Q.Q.T.~ r .                   = E E.!.Q./ T ( ~ t U ",
"D ~ ^.~.{.Q.T E R = o                     & w E T.~ / ^.^.E.Y t ",
"P U.{.!.Q.^.Q.r &   X $ .     X $ .     : % o = w ( |.^.Q.!.~ t ",
"! Y.!.E.E.R.~ =   < J G 2   8 i.A 6     <.9.4 o 0 ^ |.~.T.U.E w ",
"I E.R.^ E E Y     J k.C j . A P.p.F h   G b.:.% = U / ^ ^ T.( r ",
"P [.^.!.E.~ 0   9 x.#.2 C : N c.3.V # X h G S.S o 0 R Q.~.~.T.r ",
"I {.~.!.Q./     D K.g 7 +.,.b.`.].A.f *.x #.F.Q 5 t / }.~.!.( r ",
"! [.!.Q.E.E     D J.l 1 2 Z..X].].G.c 3 k #.D.Q = r / [.E.U.^ w ",
"P T.~ ~ E Y     D C.l 1 > 8 L.v.P.k.z : j +.D.Q $ = r R T T L w ",
"P R.T.( / U     D J.V 2 # 3 h.l.2.&.8 @ g %.I.Q 5 t ( }.{.{.E.r ",
"I {.~.~.Q.E     7 <.C z % % j.+.@.2.j X g l.F.S = t U.}.~.Q.( r ",
"P {.~.!.Q.E     o K >.x   O j.Z k z.k   1 c.a.4 = t R.}.!.E./ r ",
"P ~.U.( ( R       B u.c   X b.v 7 g.9   3 P.F X & 0 T R U U t w ",
"L t w o o X       > $.Z . #.`.B.n.'.).  5 b., w r T E. X X X~.t ",
"P {.[.[.^.~         . , n _././.1.H.(.- . # & 0 r T E.}.~.!.U.r ",
"t {.~.Q.E.E         , 0./.w._ m ' ] w.o.y . & w r R E.}.~.Q.( r ",
"t Q.( / / R         4.y.` W.e R T.R.q... .; o 0 t R E.{.!.R./ r ",
"t E.T.T.U.E       ; t.e.d {.w ( T.E T ) O.a X & = q T E Y L t 0 ",
"D [.^.~.!.E       s y. ., }./ !.R.~ ~ O e.` * = w U U.~.~.~.T.r ",
"L ~.T.( ( E       i r.} + ~.~.^.^.~.!.  e.` * w r T E.}.~.Q.( r ",
"t Y w = = &       u O.} + = w U.~ E Q.O e.` * 5 , t ~ / E E E w ",
"t {.[.[.^.~       O ' X.M ~.~.^.E R Q.{ o.p o 0 w t ( ~.~.~.T.r ",
"U [.Q.R.T.E         ;  .] 5.4.W e n 5.X.[ - & 0 r T E.}.~.!.U.r ",
"t ^ T t t w       X > b e. .6.8.0.6.O.| i 1 * 0 w U ( E.( / ~ r ",
"t !.R.T.T.T   & U.Y.N.B.m.-.;.7.7.;.=.m.V.N.M.Y 0 t ^ T.T.R./ r ",
"Y ~.U.( ( E   q C.f.f.d.s.a.a.a.a.a.a.s.f.f.f.H w Y U.Q.T.( ^ w "
};
