/* XPM */
static char *b7bb14fb736449a0e641ae3d244f6d0btpBjljVfCPpg7vRg[] = {
/* columns rows colors chars-per-pixel */
"32 32 83 1 ",
"  c #060606",
". c #00000B",
"X c #090909",
"o c #010112",
"O c #0A0A15",
"+ c #01011C",
"@ c #0B0B1F",
"# c #131313",
"$ c #17171F",
"% c #020223",
"& c #0F0F27",
"* c #02022C",
"= c #0C0C2A",
"- c #151522",
"; c #181826",
": c #16162B",
"> c #050533",
", c #0D0D33",
"< c #02023B",
"1 c #0E0E3E",
"2 c #151535",
"3 c #1D1D34",
"4 c #2B2725",
"5 c #23232F",
"6 c #3F393B",
"7 c #403B34",
"8 c #443E3D",
"9 c #020244",
"0 c #0C0C43",
"q c #00004B",
"w c #0C0C4C",
"e c #151545",
"r c #14144E",
"t c #18184D",
"y c #000054",
"u c #0C0C54",
"i c #01015C",
"p c #0E0E58",
"a c #141453",
"s c #1C1C5B",
"d c #010164",
"f c #01016B",
"g c #0B0B6B",
"h c #111165",
"j c #000073",
"k c #0C0C74",
"l c #00007B",
"z c #00007E",
"x c #0B0B79",
"c c #0B0B7F",
"v c #413B41",
"b c navy",
"n c #070783",
"m c #000086",
"M c #060687",
"N c #090985",
"B c #000089",
"V c #070789",
"C c #07078A",
"Z c #00008E",
"A c #07078D",
"S c #000091",
"D c #070791",
"F c #000095",
"G c #070796",
"H c #070797",
"J c #000099",
"K c #00009F",
"L c #03039F",
"P c #0000A2",
"I c #0000A6",
"U c #0000A8",
"Y c #0303A9",
"T c #0000AC",
"R c #0000B0",
"E c #0000B6",
"W c #0000BB",
"Q c #0000BE",
"! c #0000C2",
"~ c #0000C5",
"^ c #0202C9",
"/ c #0000CC",
"( c #0000D8",
/* pixels */
";KKKJKKJKJJ3ERRRRRERRRRRRakUUIM@",
".JFKBSJBbjd@PSmbdfbljfdlf%kUKKi.",
".FIUBZFbfdiOdfdddddfdX001$kIIBi.",
".JKKFSZmjdy@TQUIIJKIK KJB>kPJBq.",
".SSBSFffjjq@UEPTTJbbl JSl%xFJB9.",
".Zmmlfddiqq&UUUUTKlfi FBj+xZlj9.",
".Zlfiddyyi9@EWSFzzBly JBj%kjdy>.",
"o**%%%+++%+=IIZPKmldy JJl+-:;::.",
"IUIPFPFlzRFfPPKJFlfyq Zzf%gPzIEf",
"KJISBZjfbPSqPPJzjfiy9 mdy+gzfITf",
"FSISBffilbm<wwr1,2,:-O01iilfuPId",
"PFFFBjdqzSf>eVVAVMVNAVg1VRPb,PJf",
"KZSFmmfyiji<aR!(/QTUPPd>H~Il>UUf",
"KKKPljf<....aWE!U~Szbly>HUPf>TRf",
"SSKZfii>uVnaaRUFTJFmlfy>HIJj>PUd",
"mZBldfd>dKZqaRUPKbZldiq>AJPl>FZi",
"zSbldii>dIl<rJKSmjfdyy9*DIZd>HZi",
"jzlliyy<dIl<rJJjdffiqq<>GKBd>PFy",
"fmjdi99*gJz>$@&OOOOOOOO&VJji>GBq",
"dldd<<<%fFf<rIUUIIIPKIZrVRZq*mz<",
"#2wdjlfwhZl>aQQUTRFJBBb<NPm9%fi.",
"-TWWRERxiMi>aQQ~UJzzBbj,Nbiq*zi.",
"-REWIIIf,0,-aRR!TKmfjfy%0<*%=fq.",
"-RIIPIFdwcg0aEUIEPbjfi<%widdjNfo",
"-RTUIbSdfIFwaTUIQRFfidy>MTRTPIfo",
"-RT^PJMfgYZyaTIBIRKlii<*AQ~USZi.",
"-EWQJPy<jRS<aUFblzfbly<>DPJKljqo",
"-TUSSSj0fTm0aUUBbldlzf9>AIJFlfq.",
"-UFBlFb0fUj<aIKFJjdiyi<>AKIImb9.",
"$Kzfill9fJf<rUPJldyiyq<>DPFBlf9.",
"5ZzlfljphmlasISBjlfflditNZBllli.",
"7vvvv8v88v888vvv8v8vvv88vvvv8v64"
};
