/* XPM */
static char *_b0e5eaaf7c24a5d98d72344430686d2UWRiZbiQOX9T77Pv[] = {
/* columns rows colors chars-per-pixel */
"38 37 142 2 ",
"   c gray3",
".  c #1B1B1B",
"X  c #232323",
"o  c #2C2C2C",
"O  c #343434",
"+  c #3B3937",
"@  c #3B3B3B",
"#  c #5F0000",
"$  c #530F07",
"%  c #620000",
"&  c #6C0000",
"*  c #64190C",
"=  c #78170B",
"-  c #562814",
";  c #483818",
":  c #583018",
">  c #533D1C",
",  c #5A3F1E",
"<  c #79351B",
"1  c #423F3C",
"2  c #733A20",
"3  c #5C4020",
"4  c #4D423B",
"5  c #634422",
"6  c #694624",
"7  c #6E4926",
"8  c #734B27",
"9  c #754D28",
"0  c #7A4F2A",
"q  c #7D502B",
"w  c #624E38",
"e  c #7C5436",
"r  c #78593F",
"t  c #454545",
"y  c #4C4C4C",
"u  c #535353",
"i  c #5C5C5C",
"p  c #765D49",
"a  c #726356",
"s  c #636363",
"d  c #6A6A6A",
"f  c #726F6C",
"g  c #7C7062",
"h  c #747474",
"j  c #7C7C7C",
"k  c #810000",
"l  c #8C0000",
"z  c #970000",
"x  c #CA3F3F",
"c  c #914024",
"v  c #84542E",
"b  c #875630",
"n  c #8A5730",
"m  c #835A36",
"M  c #8C5932",
"N  c #935D35",
"B  c #995F37",
"V  c #996137",
"C  c #9C6239",
"Z  c #A4663D",
"A  c #A4693D",
"S  c #A9693F",
"D  c #904444",
"F  c #8A5A5A",
"G  c #B74D4D",
"H  c #946545",
"J  c #9B7256",
"K  c #917158",
"L  c #AE6C41",
"P  c #B26F43",
"I  c #B57144",
"U  c #B97546",
"Y  c #BE7648",
"T  c #BC7848",
"R  c #AD7751",
"E  c #B37B57",
"W  c #8E7463",
"Q  c #927766",
"!  c #857B7B",
"~  c #B86060",
"^  c #D44A40",
"/  c #C17749",
"(  c #C37A4A",
")  c #CB7E4D",
"_  c #8C837B",
"`  c #B18263",
"'  c #BB8E72",
"]  c #B5917A",
"[  c #D0814F",
"{  c #C28059",
"}  c #CD8558",
"|  c #D48352",
" . c #DB8553",
".. c #DD8954",
"X. c #D98A59",
"o. c #E48B57",
"O. c #E18E5B",
"+. c #E98D58",
"@. c #EB935E",
"#. c #F2955D",
"$. c #DF9467",
"%. c #D29B79",
"&. c #E39464",
"*. c #EA9663",
"=. c #ED9966",
"-. c #F49B65",
";. c #F89D65",
":. c #F7A876",
">. c #F8A976",
",. c #F8A879",
"<. c #FCAE7D",
"1. c #848483",
"2. c #8B8784",
"3. c #8F8983",
"4. c #8C8C8C",
"5. c #939393",
"6. c #9C9795",
"7. c #989898",
"8. c #B68282",
"9. c #A3968D",
"0. c #B39B8B",
"q. c #A3A3A3",
"w. c gray67",
"e. c #B4B4B4",
"r. c #BABABA",
"t. c #C09981",
"y. c #EEAF8B",
"u. c #F2AC83",
"i. c #FCB283",
"p. c #FCB68C",
"a. c #FCBC96",
"s. c #FCC19E",
"d. c #EDC1A8",
"f. c #C5C5C5",
"g. c #CACACA",
"h. c gray80",
"j. c gray82",
"k. c LightGray",
"l. c #D6D6D6",
"z. c #D8D8D8",
"x. c #DBDBDB",
"c. c gainsboro",
/* pixels */
"@ @ @ + + + @ O O @ O @ @ O @ O @ @ @ @ @ @ @ @ @ O @ @ O O O O O O O O @ @ ",
"t t t t t t t t t t t X X X t t @ @ @ @ @ t t t t t t t t t t t t t t t t o ",
"j x.k.k.k.k.r.r.r.r.e.r.5.t i 7.e.e.e.e.w.j u i h w.e.7.1.h d j j 1.h h d s ",
"1.l.5.q.q.w.1.y y y y t @ t @ @ @ @ t @ 1 1 X X X o X o X X X l.z.z.z.l.z.i ",
"h f.q.7.4.5.1.d 7.7.7.7.5.7.7.7.7.7.7.7.7.7.5.7.7.7.7.7.7.7.@ h 4.5.4.q.5.u ",
"d r.7.7.7.5.1.h 7.7.7.7.7.7.7.1.d d d d 2.7.7.7.7.7.7.7.7.7.@ h q.q.7.7.5.y ",
"u r.4.7.5.4.j h 7.7.7.7.7.7.s @ o o o X X O i 7.5.7.7.7.7.7.y h 4.5.5.q.5.O ",
"O r.7.7.4.7.4.d 5.7.7.7.7.X.Q @ 1 u 1.t y 1 o t 7.7.7.7.7.7.t h h s i u u . ",
"@ 4.s s d j j d 7.7.7.7.9.:.p.y.W R s @ y u O X h 7.7.7.5.7.t y t O o o X . ",
"@ X X O @ @ d d 7.7.7.7.%.<.a.p.' 4 O O O @ O . @ 7.7.7.7.7.t X X o o o @   ",
"7.4.s u O o d d 5.7.7.7.E V u.i.i.} A M 4 @ X X O 7.7.7.7.7.t u u u h 7.r.X ",
"x.x.x.x.x.x.5.s 7.7.7.7.u.y &.-.s.#...@.L 6 X X y 7.7.7.7.7.y u u e.c.e.7.X ",
"7.w.w.e.f.f.4.d 7.7.7.d.a.*.,.<.#.+.-.Z =.3 X @ 4.7.7.7.7.5.y y u j.e.q.w.j ",
"7.5.5.q.7.4.1.s 7.7.7.' e X.#.;.#.....| V 3 X f 7.7.7.7.7.7.y y u j.q.4.4.y ",
"7.q.7.7.5.q.1.d 7.7.7.7.m :.-.;...U Y M 0 3 4 7.7.7.7.5.7.7.y y t x.5.q.7.i ",
"5.4.7.7.5.q.1.d 7.7.5.7.X.@.:.#.( C S =.U 3 g 7.7.7.7.7.7.7.y y t x.7.7.5.i ",
"u u i s d s h s 7.7.7.7.-.+.( S N S *.*.) M 9 4.7.7.7.7.7.7.y @ t 7.i u u o ",
"X X . O o o d d 7.7.7.7.7.6.K N Z O.( Z M v 6 9 a ! 5.7.7.7.y X X X . X . . ",
"u t @ o o X i d 7.7.7.7.7.5.` Y | C C N 8 0 L Z N b p 2.7.7.y i s s i O u o ",
"u f q.g.g.g.1.i 7.7.7.7.2.{ / ) Z P 8 b L L L P I P L q j 7.y 5.c.h.5.o y o ",
"y e.f.r.r.r.j i 7.7.7.4.r ) / ) I 9 C I P L v B Z C V M 9 3.y j 4.4.u X y o ",
"u x.q.7.q.7.j i 7.7.7.a v U N Z b L I P L b 6 L V Z N v b _ y h q.5.t X y o ",
"y x.7.5.7.7.h i 7.7.7.B M 0 N V I P I P C 5 N Y I I Z N 8 ! y j 7.5.t X y o ",
"y e.h 1.5.4.j i 7.5.1.B m 9 C T ( I I L b , Y I ) Z A v , ! y j 5.q.t X y o ",
"u t O t j d f i 7.7.J N q N I T / T M M 5 0.` ( Y N L 0 > 1.y j 7.5.t X y . ",
"u u t X o O s i 7.5.H N b C C 8 > A q w q.u e.^ 8 N I 7 ; 4.y h 5.5.t X y o ",
"u u u t O o i i 7.f S C q Z U L A M = j @ o t 8.z c P 6 3 7.y u u u t X y o ",
"s q.q.q.j s d i 7.L V b v P T I M M z x i y q.F l k < > 3 7.y X X X X X y @ ",
"h c.l.l.l.l.1.i 9.Y C N B C A U V | P < G ~ D l k & * > 6 7.y X X o X @ u i ",
"h z.7.4.5.w.j i 9.[ / Y B C Z +. .A [ P 6 = l k & # - 5 0 7.y s i s s i X u ",
"h h.5.7.4.7.j i 7.7...] | I  . .Y o.+.I B , k & % : , n B 7.y 5.z.c.c.e.X u ",
"h h.q.7.5.5.h i 7.7.7.6.9.) ( P Z b N N q 7 * $ 3 7 v C ( 7.y j 5.5.7.1.X i ",
"h h.7.7.5.5.j i 7.7.7.7.7.' } } ) ( ( L N M 2 9 v Z P o.%.7.y h 5.7.5.5.o u ",
"h h.7.5.4.4.h i 7.7.7.7.7.7.7.7.&.#.&.&.$.| | ) ) &.0.5.5.7.y h 1.4.4.i X u ",
"h h.5.4.4.q.h i 7.7.7.7.7.7.7.7.7.6.7.7.7.7.6.7.6.7.6.6.7.7.y u u u u u X u ",
"d e.h h d h h o o O O O O O O + + @ O @ @ @ + + + @ + + @ @ o X X . X X X t ",
"y y O @ o o o o o X 1 o X X o X X X X o X X X X o @ @ t t t @ t t t t t y X "
};
