/* XPM */
static char *d91a1908494a4636e187348c9ff2bc9dxwUT9Vhf3zcgof41[] = {
/* columns rows colors chars-per-pixel */
"32 32 104 2 ",
"   c #232323",
".  c #252525",
"X  c gray16",
"o  c #2C2C2C",
"O  c gray18",
"+  c #312F2C",
"@  c gray22",
"#  c #3A3A3A",
"$  c #3C3C3C",
"%  c #3E3E3E",
"&  c #3F3F3F",
"*  c gray25",
"=  c gray26",
"-  c #434343",
";  c #444444",
":  c #464646",
">  c #494949",
",  c gray29",
"<  c #4F4C48",
"1  c #4C4C4C",
"2  c #4E4E4E",
"3  c gray31",
"4  c #54514D",
"5  c #58544F",
"6  c #505050",
"7  c gray32",
"8  c gray33",
"9  c #565656",
"0  c #585858",
"q  c #5A5A5A",
"w  c gray36",
"e  c #5D5D5D",
"r  c gray39",
"t  c #646464",
"y  c #676767",
"u  c gray42",
"i  c #6C6C6C",
"p  c #6F6F6F",
"a  c #726E6A",
"s  c gray44",
"d  c gray45",
"f  c #747474",
"g  c gray46",
"h  c #767676",
"j  c #797979",
"k  c #7B7B7B",
"l  c #7C7C7C",
"z  c gray49",
"x  c gray50",
"c  c #837E7A",
"v  c #808080",
"b  c #818181",
"n  c #838383",
"m  c #848484",
"M  c #868686",
"N  c gray53",
"B  c #898989",
"V  c #8B8B8B",
"C  c gray55",
"Z  c #8D8D8D",
"A  c #8E8E8E",
"S  c #909090",
"D  c #929292",
"F  c #939393",
"G  c #959595",
"H  c gray59",
"J  c #979797",
"K  c #9E9B97",
"L  c gray60",
"P  c #9A9A9A",
"I  c #9F9C98",
"U  c gray61",
"Y  c #9D9D9D",
"T  c gray62",
"R  c gray63",
"E  c #A2A2A2",
"W  c gray64",
"Q  c #A5A5A5",
"!  c gray65",
"~  c #A7A7A7",
"^  c #AAAAAA",
"/  c gray67",
"(  c #ACACAC",
")  c #AEAEAE",
"_  c #B2ABA6",
"`  c #B7B3AF",
"'  c gray69",
"]  c #B2B2B2",
"[  c gray71",
"{  c #B6B6B6",
"}  c #B7B7B7",
"|  c #B9B4B0",
" . c #B9B9B9",
".. c gray73",
"X. c #BBBBBB",
"o. c #BCBCBC",
"O. c gray",
"+. c #C3BCB8",
"@. c #C6BFB9",
"#. c #C5C0BB",
"$. c #C7C1BC",
"%. c #C8C1BC",
"&. c #CBC4BE",
"*. c #C1C1C1",
/* pixels */
"5 c _ +.%.$.%.%.%.%.&.%.+.| K 4 < I ` #.$.%.%.@.#.%.%.&.#._ a + ",
"8 z  . . . .{ { { {  . .{ { / 8 3 (  .O. . .{ { {  . . .{ { f O ",
"8 k { {  .{ ( ' {  .{  . .{ E 8 7 !  .{  .' ( { } {  . .( / d O ",
"8 k { { { ( ( ( { ' ( ' ' ( E 8 > ! { { ' ( { { ' ' { ' ( / d O ",
"7 k ( / / ! ( / / ! ! / / ! Y 7 3 E ! / ! ! / / / ( / / ! ( a O ",
"7 f J L L Y L L L Y Y E J L J 7 > F J L L Y E L L J E Y L L i O ",
"7 y z b b z z B b b z z k k k 3 > k k z z b z M z z k z b z q o ",
"> = & = = = = = = = = = & = = = = = = = = = = & = = = * = = @ . ",
"F J F F J B k 3 y M F F F J F F F J F J C M p 8 f B J F F J m p ",
" . .O.O. . .Y 7 d ' O.*.O.O. . .{ O. . . .} z q J  .*.O. . ./ F ",
"' { { ' ' ' L 7 d /  .{ ' ( {  ./ ] '  .{ / l 0 F  .{ { { X./ C ",
" .( { ' ( / L 3 d (  .' { ' ' ' ' ' ' / / / l 0 S { ' { / ( E S ",
"' ( ( ' ( ' J 7 p / { ( ( / ' { / ( ( { ( ! z 0 S { ' ( ] { ! N ",
"E / ! ! ! ! F 7 p L / Y ! / ! E ! ! ( ! ! ! l 0 B ! ! E ! ! J k ",
"F J J L J J M 7 p B J J J J L L J J L L J J l 0 b J J J L L C p ",
"r r r y r r e > 8 r r r r r y r r r r t r t w 6 q r r r y t q > ",
"; : > > > > > > > , , , > > , ; = > > > > > > > > > > > > > #   ",
"8 f U Q ! ! ! ! Q ~ ! ! ! R S 7 1 S W ! ~ ! / ! ! ! ! ! ! L y O ",
"8 z X.X.O. . .[ [ X.X.{ { ] ! 9 3 (  .O. . .' { ]  .{ { { { d O ",
"8 k  .{ { ] ' { ] { [ [ { ( R 8 > ! } { { ' ( { { ' { { { ( d O ",
"8 k ] ) ( / ) ) ' / ) ' / / R 8 3 ! { ' ( ( ( ' ( / ) ) / / a O ",
"8 h E Q E R Q R E ! E ! E T L 7 3 L Y Y E E / E Q / Q ! Y W i O ",
"8 i B N C G J A C B B V J A C 7 > b B S S C F F V C C A N A y O ",
"6 8 0 9 0 q 9 q 0 q 0 0 q 0 0 > : q q 8 0 q 8 w 0 0 q 0 0 q ; X ",
"t e 0 q q 0 6 , 2 8 q q q q q e e q q q 0 8 2 > 6 9 0 q q q 6 $ ",
"Q ! Q ! ! ! L 6 i R ( ( ( ( ! ! Q ! ! ( ! ! f 0 C ( ( ( ( ! J b ",
"[ {  .{ [ ] R 6 d ( { o.{ ] ] ] [ { X.{ { ' k 0 F X.{ o.' { Q A ",
"[ ] [ { ] ( L 6 s ) { [ { ) [ { ] ] ' [ ' ( z 0 A  .{ [ ' { ! A ",
"{ ! ) ~ ! ! Y 2 p Q ' ( / ( ) ! ( ( ! ~ ! ! z 0 A ) ' / / ! G B ",
"U R E E Y Y S 7 i A U U U T E U ! T U U Y T k 0 m T Y U E Y A f ",
"n N m N m N k 2 y x m m N N B B m m N N m N f 9 h m m B N V z t ",
"* = ; * = ; * $ * * = ; = = ; * ; * = = = ; * $ * * = ; * = * $ "
};
