/* XPM */
static char *ef819686a8214974fbafe60a94476f94CYavNwvrBc7ekkoi[] = {
/* columns rows colors chars-per-pixel */
"32 32 170 2 ",
"   c #3C1206",
".  c #2F1E15",
"X  c #231E1E",
"o  c #361712",
"O  c #3C1616",
"+  c #341E1E",
"@  c #3C1D1D",
"#  c #2F2A27",
"$  c #2F2B2A",
"%  c #362222",
"&  c #3C2424",
"*  c #372D22",
"=  c #3A2E23",
"-  c #342C2C",
";  c #3D2B2B",
":  c #3E3424",
">  c #3E342A",
",  c #3F382F",
"<  c #353434",
"1  c #3C3535",
"2  c #3D3C3C",
"3  c #4E0404",
"4  c #460E05",
"5  c #4A0802",
"6  c #470A0A",
"7  c #4B0B0B",
"8  c #540202",
"9  c #5B0202",
"0  c #5D0805",
"q  c #510A0A",
"w  c #421211",
"e  c #4B1212",
"r  c #441E1E",
"t  c #4F1D1D",
"y  c #5B1616",
"u  c #640101",
"i  c #6B0000",
"p  c #640E0E",
"a  c #6A0E0E",
"s  c #730101",
"d  c #7C0202",
"f  c #750E0E",
"g  c #6B1212",
"h  c #661D1D",
"j  c #761010",
"k  c #7A1111",
"l  c #721F1F",
"z  c #45331B",
"x  c #422525",
"c  c #4C2424",
"v  c #462B2B",
"b  c #4B2B2B",
"n  c #532323",
"m  c #5B2727",
"M  c #5C2F2F",
"N  c #423627",
"B  c #43362C",
"V  c #423828",
"C  c #493A2E",
"Z  c #52362E",
"A  c #423535",
"S  c #4A3434",
"D  c #443B32",
"F  c #493E35",
"G  c #433E3E",
"H  c #4C3B3B",
"J  c #523434",
"K  c #5D3A3A",
"L  c #682222",
"P  c #632F2F",
"I  c #692F2F",
"U  c #7C2121",
"Y  c #712828",
"T  c #643535",
"R  c #723939",
"E  c #5C401F",
"W  c #5D4021",
"Q  c #474037",
"!  c #4C4135",
"~  c #4D433A",
"^  c #5B433B",
"/  c #54493F",
"(  c #654525",
")  c #6A4725",
"_  c #6C4826",
"`  c #6E4929",
"'  c #714B27",
"]  c #744C29",
"[  c #794F2A",
"{  c #7E512C",
"}  c #664B33",
"|  c #725036",
" . c #785538",
".. c #444343",
"X. c #4A4343",
"o. c #484847",
"O. c #4C4B4B",
"+. c #544841",
"@. c #5C4F44",
"#. c #534D4B",
"$. c #545454",
"%. c #5B5656",
"&. c #5C5B5B",
"*. c #614747",
"=. c #744949",
"-. c #6E5340",
";. c #6F5A4B",
":. c #785C4B",
">. c #605757",
",. c #625959",
"<. c #765959",
"1. c #636363",
"2. c #6B6B6B",
"3. c #727272",
"4. c #7B7B7B",
"5. c #840101",
"6. c #8B0101",
"7. c #840B0B",
"8. c #8B0B0B",
"9. c #930000",
"0. c #9C0101",
"q. c #960C0C",
"w. c #9A0C0C",
"e. c #831313",
"r. c #8C1313",
"t. c #951414",
"y. c #9C1111",
"u. c #921818",
"i. c #A30404",
"p. c #AD0101",
"a. c #AF0808",
"s. c #B30202",
"d. c #BC0202",
"f. c #AF1010",
"g. c #AB1818",
"h. c #C50808",
"j. c #CF0808",
"k. c #E60000",
"l. c #82542E",
"z. c #855632",
"x. c #885730",
"c. c #8C5932",
"v. c #865C3C",
"b. c #895D3D",
"n. c #935D35",
"m. c #975F38",
"M. c #995F38",
"N. c #9C623A",
"B. c #A56A3E",
"V. c #A96C3F",
"C. c #82604A",
"Z. c #866A4F",
"A. c #936343",
"S. c #AE6E41",
"D. c #AE6F42",
"F. c #B27043",
"G. c #B47243",
"H. c #BE7747",
"J. c #BE7848",
"K. c #876868",
"L. c #8F6B6B",
"P. c #966969",
"I. c #817D7D",
"U. c #C4794A",
"Y. c #D3874F",
"T. c #D1894C",
"R. c #828282",
"E. c gray53",
"W. c #898989",
"Q. c gray54",
/* pixels */
"1.1 1 A 1 A 2 2 2 ..2 2 ..2 2 ..2 2 2 2 A A A A A A A A A 2 2 < ",
">.8.8.8.8.5.h o.W.E.W.E.W.W.E.E.W.4.2 R j.h.h.h.d.d.s.a.a.i.m 8.",
">.5.i i i u w ..I.2.2.3.2.E.2.2.2.$.< I 9.9.5.5.9.i.0.6.0.9.r 8.",
">.d u i 9 9 o G 4.3.&.1.2.3.&.1.1.O.< P 5.6.s s 8.0.9.5.0.d @ s ",
"&.9 3 4   4 . 2 1.$.O.$.$.$.......2 < M s i i u i i i u i 8 @ 0 ",
"&.v - > < # $ 2 ....2 < < 2 1 < < 2 2 G S S H H A ; & ; A 1 1 & ",
"=.h.d.s.p.s.i.9.H Z.Y.U.U.U.G.U.F.F.S.S.S.F.F.J.G.-.o.k.d.d.s.6.",
"O 0.6.5.9.d 6.i ; :.S.m.n.S.c.[ v.c.n.N.z.n.{ N.l.C o.d.5.9.5.i ",
"K 9.5.d d 6.s 9 - :.c.m.l.M.] x.x.l.c.z.' c.{ N.l.N 2 p.6.5.d i ",
"K.s 0 u 9 0 u q ; ;.z.] ] ] _ ` ` ) ` ) ( ` W [ ( * 2 8.u 0 0 8 ",
"I.A ; S S v v % G $.~ F F D ~ ~ +.Q 1 D Q ~ D D ~ 2 2 M ; A A ; ",
"R.R.3.4.4.2.1.3.3.1.2.2.2.o.o.Y k k a j j g a p g g g g p y v &.",
"4.W.3.3.1.3.2.3.,.3.2.1.1.2 X.U 5.s u i s i s s i i i d i 8 @ &.",
"3.4.1.2.&.2.1.1.&.2.$.1.&.2 X.l i i u d s 9 i i i i i i i 8 @ &.",
"3.3.#.O.O.o.O.O.O.O.O.%.O.< 1 L i p 3 0 9 0 q q 0 q u q 3 q % &.",
"%.*.J J J v 2 o.+./ +.~ F F +.^ J Z C v & t m n t t c t n n b A ",
"x y.t.y.y.y ..C.A.b.N.b.v.b. .v.v.b.v.! T u.t.t.7.r.r.7.e.k k g ",
"K 6.0.6.i.7 1 | N.c.N.n.n.' ] N.x.N.n.V R w.0.9.6.9.0.5.6.6.d u ",
"=.8.9.5.0.7 .. .N.{ N.x.x.[ ` l.x.N.N.: R 9.i.5.6.9.9.6.6.5.d u ",
"@.u i s u 6 ..} c._ l.l.] E ` [ ( l.( : T 7.5.5.5.6.5.s s d u 5 ",
"%.& & x v ; S A % + x S ; + + - < x b b K b b J J v & x v v ; - ",
"&.8.d 5.5.d d d s f f d d d d y 2 f.a.s.a.a.w.0.i.i.i.i.i.9.n p ",
",.5.u u i i s s i i i i u u u e Q q.5.5.5.d i 5.d 6.9.6.5.u r u ",
"#.d u u 9 u s s u i i i u 9 i w 2 y.s 5.5.d u s d 9.6.6.5.9 @ p ",
"- i 8 9 9 9 9 9 8 8 8 8 8 8 8 6 ..k i s i i 9 9 u u u 9 9 3 @ 8 ",
"1.G 2 A 1 A o.G < 1 A < $ 1 1 1 ..Q 1 A 1 1 G ..1 1 $ X - 2 2 < ",
"P.d.s.p.p.s.i.i.9.o.;.T.U.U.H.S.S.N.V.S.S.B.x.H g.s.s.p.p.p.0.5.",
"L.5.6.d 5.5.u i u < @.n.n.l.{ n.[ W [ l.l.l.z H u.i d 5.6.5.s 9 ",
"K.9.d 5.9.5.i 5.u < / z.x.N.x.] W ' l.[ { [ z H t.s d 5.5.d s u ",
"<.6.s s 5.d i s u < @.z.l.c.{ _ W { [ x.l.' z A e.u u 5.5.d i u ",
",.r @ r @ r @ @ + < #.F V C , > > B > = * * # < J @ @ O O r @ @ ",
"$.O.o.o.O.O.O.O.O.O.$.$.O.O.O.O...O.O.....o.o.O.O.O.O.o.o.o...2 "
};
