/* XPM */
static char *_a3c060f2090429e877e69e45133a6892aopsPxK9WeBcG0c[] = {
/* columns rows colors chars-per-pixel */
"32 32 52 1 ",
"  c gray7",
". c #161616",
"X c #191919",
"o c gray11",
"O c gray13",
"+ c #252525",
"@ c gray17",
"# c gray18",
"$ c gray19",
"% c #353535",
"& c gray22",
"* c gray24",
"= c #434343",
"- c #444444",
"; c #494949",
": c #4C4C4C",
"> c #515151",
", c gray33",
"< c #5B5B5B",
"1 c #5D5D5D",
"2 c gray39",
"3 c #646464",
"4 c DimGray",
"5 c gray43",
"6 c gray44",
"7 c #747474",
"8 c #7B7B7B",
"9 c gray49",
"0 c gray51",
"q c gray53",
"w c #8B8B8B",
"e c gray56",
"r c #929292",
"t c #959595",
"y c #989898",
"u c gray61",
"i c #A2A2A2",
"p c #A5A5A5",
"a c #A9A9A9",
"s c #ACACAC",
"d c #B1B1B1",
"f c #B6B6B6",
"g c gray72",
"h c gray",
"j c #C1C1C1",
"k c gray77",
"l c #CACACA",
"z c gray80",
"x c LightGray",
"c c gray83",
"v c #DADADA",
"b c gainsboro",
/* pixels */
"#&&&&&&&&%+@$&%%%%%&&&&&&&%&&%&$",
"*ccxccccxxx5;yzxczt:>uckiq52222:",
"6zdiaaipipt>2gsiaur::vgyskzzzzk0",
"3dpyutyttet,2puytt9;:vtrtrttytt4",
"<yutrerrtrr<2pyeqe8-:certwwuuyy4",
"=9yteterttr12atwwe8-:cerreetw88>",
"$2wq0rrttye11ptetr8=:xw86664<:;+",
"X%*;,122122*1pytyr7*;y,=%$#$#@#o",
":2-%#@@#@@@$3irute3&-1:;;;;-;>71",
"qzkfpuyyte7#3artw93*;5yfgar;8fk7",
"3sgkklljjd4#3atteq<%:lpyttw-yjat",
"2eryyuyryy,#2auwe0<&:crurtw=ise8",
"1iyitprerr,#1sue90,%;jrrttr&idu9",
":w0ewteqwe<%,peqe0,%:pwe009&upq4",
"+=;1222121;$<pyerq,%:61<-**$4,=%",
"X$@#@@@@@@@+,itreq>%:*%%%%%%%%$#",
"$>23322222>#3irr05*$;4rtttttr7;*",
"$2dggggfff7%6prw,*#=>ikdadafa9**",
"@4jispapir,%6sr7&=0y2ldtteurr1@&",
".5hrrrret0*&6sw4@qsy1vteytrte1@*",
" 1twrreet0*%7p9:$ju2;btttuuyr2+*",
"%;-<q89q91&%6u3=;st-=bytuyttt1+*",
"@>-@%&&&%&O%59=@<iq-=vewrewee2@&",
"X<<;&$$$$$$*;&@#:>;&=f6<<,,<>=@*",
".wyyq862,,352<153:&$*1%@+@@@@@@*",
"Xjzhhkfe1:hjjjhhayw9:&%$$#$$#$*%",
"Xgsrrutq>:cyyuyttsdp6&>50000003#",
"ofaytrt9-;xytttettyt7$>pgsadsa0#",
"#fpyutr8*:ciwewwiuur2$,siyyttr7#",
"&futrrr6&<cyrtetryyt1#1iryyyrr5@",
"*fiewrr8%2g766556666<O19332333>@",
"&pwqqq0>*:<==-======%@-#O++O+OO+"
};
