/* XPM */
static char *_aab97fa57334a88dacfb3c011895033ShARcHhvLqZd9xl6[] = {
/* columns rows colors chars-per-pixel */
"32 32 46 1 ",
"  c #202020",
". c #222222",
"X c gray14",
"o c gray17",
"O c gray18",
"+ c #323232",
"@ c #343434",
"# c #393939",
"$ c #3E3E3E",
"% c #414141",
"& c #464646",
"* c gray29",
"= c #4C4C4C",
"- c #505050",
"; c #555555",
": c #5A5A5A",
"> c #5D5D5D",
", c #626262",
"< c #656565",
"1 c #6A6A6A",
"2 c #6F6F6F",
"3 c #717171",
"4 c #747474",
"5 c gray48",
"6 c gray50",
"7 c #808080",
"8 c gray52",
"9 c #8B8B8B",
"0 c #8E8E8E",
"q c gray57",
"w c #979797",
"e c #9B9B9B",
"r c #9F9F9F",
"t c #A2A2A2",
"y c #A4A4A4",
"u c #A9A9A9",
"i c #AEAEAE",
"p c gray70",
"a c #B7B7B7",
"s c #BBBBBB",
"d c gray74",
"f c #C3C3C3",
"g c #C5C5C5",
"h c #CBCBCB",
"j c #CDCDCD",
"k c gray81",
/* pixels */
"#####;111<111*$:,,>>=@@###@#####",
"11<>;yhfhgggf:>iewq04@,wer93<,,,",
"dat5;usyttyt0%:rwrr9;@3fssfdapaa",
"ueq<&yperewe7%&50076$+3pe9wqwwwe",
"e94=@9drwq9r3=+=:;=-OO2iw9wqweqq",
"<,*Oo1fw89q04-o&%-12,*<q8642<1<,",
"OOoo+*g090w98&o>yppu5&*>:*&$@+OO",
"$@##@&urr08w2=o4seqq3@@@@+@@####",
"eeww=&7i00095=o4urqw2@,d2-0eeeew",
"utyq=%>e9052<*X2t52,=@6p@5hsaaaa",
"ree6*#=<-*%##oX&,=++O$qu#6serq8q",
"wqq5&@542>%+&>159752$-uy@3urrw8q",
"0903%+siir,%rpaasdsq%1ae@:e77660",
"21,&@+dreq=%gurwwew4$1s0@#=*&=;,",
"+++@&%fwr9%$hwe979e2#2d0+$@$#+Oo",
"1ugfy*fw99*%su0986e2@<iq@5s0;*%*",
"8sure%freq>#rgw9q8e,@1p9+uquii8-",
"9uwet&fwe0>+5jt099w-O3i8+uterw1*",
"9ieeq$j79q>o;de7764&o,9>+8q098,%",
"9irew$dqw9,o&75>*$@+O**%&-****%#",
"9iwew$yww9>o$==%$%%%*:13331<,<;&",
"9ite5@rre8>o+6trrtrttpfjjjjjfp4=",
"8iww<@qr09>O ehggsgdgfsiapyuyr<$",
"2rq1*@8we0>O 8gqwewteteq9eqerq>#",
"-,=-+@1863;o ,jtq00w0qq0qe8898:#",
"-:%+O%#@@@@o -iw8080880999q885;#",
">re021-%###@@=;%%%>33121232321*#",
"2haaapyrwwq98743-$#$$$###@@@@@+$",
"1htrrypuyuiyuiie:&<q,%%%$##$#$&*",
"1t76667555556785%$tsiw410w09994-",
";-#$#$$$#####$##OO50q62qeryttr<=",
"=$@O+OoOOOOOoOOOoO**@Xo*---;--*="
};
