/* XPM */
static char *fd3a25004bec4136eda8afbabe7d7041wd8fp2QREL3CCUx3[] = {
/* columns rows colors chars-per-pixel */
"32 32 32 1 ",
"  c #020202",
". c gray2",
"X c #090909",
"o c #0E0E0E",
"O c #131313",
"+ c #151515",
"@ c #1B1B1B",
"# c #1D1D1D",
"$ c #232323",
"% c gray14",
"& c gray17",
"* c #2F2F2F",
"= c #313131",
"- c #353535",
"; c #3A3A3A",
": c #3E3E3E",
"> c #434343",
", c #464646",
"< c #484848",
"1 c #4C4C4C",
"2 c #535353",
"3 c #555555",
"4 c #5A5A5A",
"5 c gray37",
"6 c gray38",
"7 c #676767",
"8 c gray42",
"9 c #6D6D6D",
"0 c #727272",
"q c gray46",
"w c gray48",
"e c #7C7C7C",
/* pixels */
"==========**&==*==*&&**=**&&*&*&",
"ewqwqwqqqq3%:8qqq91+$3qq61;>::-$",
"w846654654;%2865631#&783299999<.",
"933232122<:$155212>@%631211122= ",
"412<12<41<>$162<:1;@%51<5,,243= ",
">21221,321>$151,<<,+%6321<<1<,- ",
"-:,:<123<3:#<53213>@%41:----&&# ",
" .+#%$%%$$$o>4423<;+$;%@@@.     ",
"$@   .....  :4,31<&o#&*=***&&***",
"===--,5761# >613,:#X#>48063&%243",
"8809997873@ :6221,@X%753<<1%;075",
"224342213<@ >65<>>@X$733221%;932",
"422233<<1<@.<51,,>@X#631122%;643",
";;:>,,>:>:@X152>1>@X@<1>-=*+-2:-",
"##$$$$$$$#oX134,<,@X@+oXXX  XoX.",
"$          o222<2,+.##@@@@@@@@O@",
"*12121111<&%353<=#XO&,8qwwwww0> ",
";w99898881#%341;@o@*=69432234<# ",
":q4332141-@%36<&X*56>86141232># ",
":6<212121=@%35;#o63>%64214222>@ ",
"#&*,112<,*+%33*o*83&O55154433,# ",
"#$o#&**&&$@%1:$ :6<$O44223111,# ",
"&*@X......o$$O. $%$#O31;-;-;-=o ",
"><<;*%&&&%$$#@O$%O .o$#OOOOOOX  ",
"0wwww05:$=8000005=$#oX.        .",
"08<<323%X=93333127q7=+%=+O+@O++X",
"033212<%.=7122211242<+#<0878888=",
"942322,% -821<,<4341;o$76212321*",
"011222>% <8112,13321-o$8<<2332<*",
"03<,,1,$.13:>:;:>>::*o#,==---==%",
"7>>,<<=#o%$@@@@@@@@@+.ooXX.XX...",
"*##$### $. .. .....  +$.   .  .."
};
