/* XPM */
static char *ccfcf8126640457cf461868dc0cd6669Ig7W9451H5lSHl3Z[] = {
/* columns rows colors chars-per-pixel */
"32 32 33 1 ",
"  c black",
". c #070707",
"X c #0B0B0B",
"o c #0C0C0C",
"O c #101010",
"+ c #161616",
"@ c #1B1B1B",
"# c gray12",
"$ c #232323",
"% c #252525",
"& c gray17",
"* c #2D2D2D",
"= c gray19",
"- c #353535",
"; c gray23",
": c #3C3C3C",
"> c gray26",
", c gray28",
"< c #484848",
"1 c gray31",
"2 c gray32",
"3 c gray33",
"4 c #5B5B5B",
"5 c gray37",
"6 c gray38",
"7 c #646464",
"8 c #6A6A6A",
"9 c #6D6D6D",
"0 c #717171",
"q c gray46",
"w c #7B7B7B",
"e c #7C7C7C",
"r c gray51",
/* pixels */
"&&&&&>,,<<,<,&*>>>:,-%&&&&&&&*&*",
"==*@#89099096+-8211<- &222<;===-",
"994*$9775656>o*52541% ;097987888",
"771&+0444213,o@>2<<,o ;83,224355",
"75,%o56421<4;oX$$@#+ X:72<242132",
"22:@X,72><1<>o.@+#=-&$,3<<::;>,:",
"==$.X%92<1111X.=6677:#$&*&$&%&&%",
".   .#8431,4=OX<041<= .XXX.XXXXO",
"2333@$762<<<,%o18554* =0=*233336",
"6565@$;4221,:#X:4<>-#.,7+<08998e",
"343<++$*&%@OO. $=$OO.O43+<7443<5",
"1<3,Oo>-=&+o#*-:,:;&o%73+:6453<4",
"213;X 9674*$4687898<O-91+*3,,,>3",
";-*+ .754<%$r643343-o;0<OX$##$%;",
"oo+##@7251+#r32<322=O;q1+ .X...o",
":8874+8221+#q52,>>1=O-7<O27<%#@&",
"68742+5531%O8921<<1* -8<Oq2777-=",
"66222+7242%X1q4<,<<#X:7<O04333*%",
"6744<Oe111%X-q2>,>=..-<*O7,,><%#",
"77531Oq32,%.%<;%#O. X#@+#=#@##Oo",
"6654<Oq331%.+$+oo++O$*-::=*&&&+$",
"5854;Xw53<% .3445666660qwqwq85&&",
"5722*.951>%. 7qreqeweq87895874%@",
"342:# 6221%. 79<25442533252553%o",
"%&$&XX:1>;#. <052113122334,1,<%O",
"&%XX @       =6212<1,>>><23,::$O",
"-431--+OooXXX%$+#$;;=---;;----@O",
"10998853<,,:,<:=#ooO++++++++++o$",
"1853455654556672$@->%OOOOOOOO+#*",
"<3,>,,>>>:>,><1:OO7973>;211<<<==",
"*%@@@@#@#@@##@#@XX<123-1334344*=",
"$. ...            &%.. #&&&&%&#*"
};
