/* XPM */
static char *_a55211d50584bb4a0aae1b0c76b662dORJQmGbzYL1bWBq1[] = {
/* columns rows colors chars-per-pixel */
"32 32 134 2 ",
"   c #21201C",
".  c #212222",
"X  c #363521",
"o  c #3A3922",
"O  c #2A3434",
"+  c #343C3C",
"@  c #3B3B3B",
"#  c #444214",
"$  c #495F15",
"%  c #6A6A00",
"&  c #5B5921",
"*  c #015B5B",
"=  c #224D4D",
"-  c #334242",
";  c #3B4444",
":  c #394A4A",
">  c #086666",
",  c #016D6D",
"<  c #0D6D6D",
"1  c #027373",
"2  c #0B7575",
"3  c #027B7B",
"4  c #1A7D7D",
"5  c #237575",
"6  c #454F4F",
"7  c gray30",
"8  c #545757",
"9  c #565E5E",
"0  c #585C5C",
"q  c #6A6A54",
"w  c #7D7C58",
"e  c #5B6161",
"r  c #4C7F7F",
"t  c #636464",
"y  c #646C6C",
"u  c #697171",
"i  c #757D7D",
"p  c #797979",
"a  c #807F5B",
"s  c #579249",
"d  c #78AC4A",
"f  c #B4AC00",
"g  c #83B74A",
"h  c #97C64B",
"j  c #A0D44F",
"k  c #018585",
"l  c #0C8585",
"z  c #008B8B",
"x  c #0C8B8B",
"c  c #128C8C",
"v  c #188B8B",
"b  c #019393",
"n  c #0C9494",
"m  c #009B9B",
"M  c #0C9B9B",
"N  c #139393",
"B  c #1B9595",
"V  c #139B9B",
"C  c #1B9C9C",
"Z  c #249393",
"A  c #2C9797",
"S  c #02A3A3",
"D  c #09A5A5",
"F  c #0DA8A8",
"G  c #15A4A4",
"H  c #1CA4A4",
"J  c #13ABAB",
"K  c #1CACAC",
"L  c #1EB1B1",
"P  c #23A5A5",
"I  c #2BA7A7",
"U  c #22ABAB",
"Y  c #2CABAB",
"T  c #33A6A6",
"R  c #34ACAC",
"E  c #3CACAC",
"W  c #3EBAAE",
"Q  c #21B2B2",
"!  c #2CB6B6",
"~  c #2EB8B8",
"^  c #35B4B4",
"/  c #3DB5B5",
"(  c #37BAB2",
")  c #31B8B8",
"_  c #32B9B9",
"`  c #33B9B9",
"'  c #34B9B9",
"]  c #37B8B8",
"[  c #35BABA",
"{  c #36BABA",
"}  c #37BABA",
"|  c #39BBBB",
" . c #3BBBBB",
".. c #3CB9B9",
"X. c #3DBCBC",
"o. c #568989",
"O. c #588B8B",
"+. c #5E9090",
"@. c #7A8181",
"#. c #7B8282",
"$. c #669595",
"%. c #709D9D",
"&. c #45AEAE",
"*. c #4CABAB",
"=. c #44B5B5",
"-. c #48B4B4",
";. c #4BB6B6",
":. c #41BBBB",
">. c #42BDBD",
",. c #4EBBBB",
"<. c #52B7B7",
"1. c #56BCBC",
"2. c #58BABA",
"3. c #79A6A6",
"4. c #46C0C0",
"5. c #4AC0C0",
"6. c #57C0C0",
"7. c #5CC3C3",
"8. c #60C3C3",
"9. c #63C5C5",
"0. c #64C5C5",
"q. c #69C7C7",
"w. c #78C6C6",
"e. c #72CCCC",
"r. c #98A2A2",
"t. c #8AB7B7",
"y. c #A0A0A0",
"u. c #AFAFAF",
"i. c #B1B1B1",
"p. c #BBBBBB",
"a. c #84D3D3",
"s. c #91D1D1",
"d. c #97DBDB",
"f. c #B3DEDE",
/* pixels */
"9 l k 1 k 3 3 3 3 k 3 1 k 3 3 3 3 k 3 3 k 3 3 3 3 3 3 3 3 3 3 - ",
"0 K H > c H V , c H H * N H c * K R v , T I l > H H 1 , n b k - ",
"9 P U l 1 1 1 , , 1 1 , , 1 , , 2 2 , , 2 1 , , 1 1 , , 1 n l - ",
"9 c R ^ n b z b z b b b n V V n V C C C V n N n b z z 3 , n l - ",
"9 b Y 7.J S S S S S J J L Q ~ ~ ! Q _ ! Q Q J S S S b z 1 b k - ",
"e H } 9.J S S S F J Q Q Q _ ~ _ ! _ ~ Q Q J D S b b b k 1 S z - ",
"+ K } 7.J S J K Q Q Q Q _ _ _ _ _ ! Q L J F S S m b z z 1 F x - ",
"O B 1.9.H K Q Q Q Q !  .! ~ ~ }  .Q Q L K S S m b b z z , &.A - ",
"#.l I 9.~ L Q Q Q _ >.} _ ! ! ! Q Q L K S S S b b z k k , z k - ",
"i K } 9.~ L Q Q _ _ } _ _ } _ Q Q L J S S S b b z z z z 3 J x - ",
"i P ..9.! L _ } } _ ~ ~ }  ._ Q L K F S S b b z z z z k 2 L x - ",
"i x T 9.~ ~ } X.} ~ Q ~ _ } Q L L J S S S b b z z z z k , N l - ",
"u z Y 9. ._ _ } } ~ _ _ ! Q L L F S S m b b z k z z b k 1 b k - ",
"y U } 9.>.W ( *.r.i.i.p.t.K L K S S S b b b z z z z z z 3 D k - ",
"e P >.9.E f j 4 : p p r.3.Q L S S S m b z z k z z z z z 1 n 3 - ",
"; N ;.,.Z % h < 6 q w g %.K J S S S b b z z k z z b b z , n l - ",
"O N =.Y ;.% g < @ & o a $.F S S m b b b z k z z z b b z , k k - ",
"8 2.e.Y <.% g < O #   a +.S S S b b b b z k k k z b b z , b z + ",
"e s.d.Y ^ % d < O X O t O.S S b b z z z z z z z z b b z , M l - ",
"e -.9.R C $ s < O @ @ t o.S m m b b z k k z k z z b m z , Z c - ",
"e 2.e.Y k x J < . 7 8 t o.m b b b z k k k z z b b m b z , z k - ",
"t f.a.U n Q K 2 = = - = 5 m b b b z z k k k z z b b m z 1 m z - ",
"0 w.q.Y L Q K M M b b b m b b z z z k k z z z b b m m z 1 K c - ",
"+ Z &.>.Q L Q K F D S S b b b z z k k z z z z b m b m z , N l - ",
"O n :.q.! L K D F S m m b b b z k k k z z z b b b m S z , M z - ",
"#./ 4.9.! U F F D S m b b b z k z k k k z z z b b m S z 3 F l - ",
"i U X.9.! J J J S m m b b z z k k z z z z b b m m m S z 3 K c - ",
"i c <.0./ U Q L J H V V N n x b b x n V n n M M M S D b , T Z - ",
"u x I 8.0.8.9.7.6.6.2.2.;.R I V M I ^ / / / :.:._ ! ! U k n z - ",
"y U K I =. .} E / U P Z P B v l l B B P K H Y T  .^ H ;.H L x + ",
"y P H x C U H l n b n 1 z 3 1 1 k z l l b G N x P U 3 B U K l : ",
". : : ; : : : - - : - - : : - ; - - : - : : ; : : ; - : : : : @ "
};
