/* XPM */
static char *_dbc1bba7e634ab3b3e1bc3ca4873b44ptwvr5BPsPGUc66k[] = {
/* columns rows colors chars-per-pixel */
"34 34 183 2 ",
"   c #040404",
".  c #0C0C0C",
"X  c #121212",
"o  c gray12",
"O  c #252525",
"+  c #2C2C2C",
"@  c #322C2C",
"#  c #392E2E",
"$  c #333333",
"%  c #383434",
"&  c #3B3B3B",
"*  c #5C0C0C",
"=  c #531616",
"-  c #6A0101",
";  c #7F0000",
":  c #7B0E0E",
">  c #691414",
",  c #761010",
"<  c #721B1B",
"1  c #713C0E",
"2  c #452A2A",
"3  c #592323",
"4  c #512A2A",
"5  c #473C3C",
"6  c #4A3C3C",
"7  c #632424",
"8  c #682828",
"9  c #732626",
"0  c #673535",
"q  c #613D3D",
"w  c #733D3D",
"e  c #793D3D",
"r  c #5E441D",
"t  c #534233",
"y  c #5D5337",
"u  c #6A5B29",
"i  c #444444",
"p  c #4B4545",
"a  c #4B4B4B",
"s  c #544A4A",
"d  c #594E4E",
"f  c #59584D",
"g  c #545453",
"h  c #5C5654",
"j  c #5C5C5C",
"k  c #644949",
"l  c #6D4B4B",
"z  c #754848",
"x  c #6F5757",
"c  c #635B5A",
"v  c #6A5E5E",
"b  c #775B5B",
"n  c #6C6140",
"m  c #72694D",
"M  c #73685E",
"N  c #646464",
"B  c #6C6565",
"V  c #6C6C6C",
"C  c #786E6E",
"Z  c #737272",
"A  c #7B7B7B",
"S  c #820F0F",
"D  c #8A0E0E",
"F  c #841212",
"G  c #881515",
"H  c #861C1C",
"J  c #8C1B1B",
"K  c #921F1F",
"L  c #9A1919",
"P  c #A70000",
"I  c #AD0000",
"U  c #A60E0E",
"Y  c #B30000",
"T  c #BB0000",
"R  c #B10A0A",
"E  c #A51D1D",
"W  c #BA1A1A",
"Q  c #862E2E",
"!  c #982C2C",
"~  c #AE2525",
"^  c #A42C2C",
"/  c #B22929",
"(  c #AD3B3B",
")  c #B33333",
"_  c #B33939",
"`  c #CE0000",
"'  c #CC0909",
"]  c #D20000",
"[  c #DA0E0E",
"{  c #DE1111",
"}  c #E30000",
"|  c #E00A0A",
" . c #ED0A0A",
".. c #F30000",
"X. c #F00909",
"o. c #E61818",
"O. c #E61A1A",
"+. c #FC1A1A",
"@. c #C82222",
"#. c #D02A2A",
"$. c #D03838",
"%. c #F22525",
"&. c #F62B2B",
"*. c #F13131",
"=. c #8C5600",
"-. c #8E6000",
";. c #9F7708",
":. c #A47404",
">. c #A17C0D",
",. c #A57A12",
"<. c #814444",
"1. c #895A5A",
"2. c #9B5B5B",
"3. c #A74747",
"4. c #B74C4C",
"5. c #99774F",
"6. c #917257",
"7. c #8E6D6D",
"8. c #9A6363",
"9. c #8E7777",
"0. c #B56F6F",
"q. c #A47979",
"w. c #BA7979",
"e. c #C54141",
"r. c #CA4242",
"t. c #D45D5D",
"y. c #E44B4B",
"u. c #F64D4D",
"i. c #D06A6A",
"p. c #CB7171",
"a. c #E56060",
"s. c #A08025",
"d. c #BB8E2E",
"f. c #C7952A",
"g. c #D0A837",
"h. c #988657",
"j. c #B59658",
"k. c #9A9175",
"l. c #9F9579",
"z. c #D1A157",
"x. c #838383",
"c. c #8C8C8C",
"v. c #9A8A8A",
"b. c #93918F",
"n. c #949494",
"m. c #9E9E93",
"M. c #9B9B9B",
"N. c #A38686",
"B. c #BE8989",
"V. c #A49D9B",
"C. c #ABA286",
"Z. c #AAA48B",
"A. c #B0A78B",
"S. c #AAA79F",
"D. c #B4AD9D",
"F. c #A4A4A4",
"G. c #ACA5A5",
"H. c #ACACAC",
"J. c #BCB7A8",
"K. c #B4B4B4",
"L. c #BBB5B5",
"P. c #BBBBBB",
"I. c #CE9191",
"U. c #DD9393",
"Y. c #E18D8D",
"T. c #EA9B9B",
"R. c #C2A0A0",
"E. c #DBABAB",
"W. c #C1B0B0",
"Q. c #EDA3A3",
"!. c #F4ADAD",
"~. c #D1C088",
"^. c #D8C393",
"/. c #CBC3AC",
"(. c #D3CAAE",
"). c #C3C0B4",
"_. c #EADBA3",
"`. c #C4C4C4",
"'. c #CBCBCB",
"]. c #D6CBCB",
"[. c #D8D8D8",
"{. c #E2E2E2",
"}. c gray94",
/* pixels */
"$ & & & $ & j N N N N N N N a & f j N j j g & + $ $ $ $ $ & $ & & $ ",
"g j j c f j K.'.`.'.'.'.`.K.B c G.F.n.c.c.M.i + A n.n.c.x.j f f g g ",
"F.P.D.~.h.n S.m.Z.l.A.A.Z.l.y n k.k.C.C.h.h.y 6 l.(.J.J.)./._.^.L.P.",
"n.V.j.g.d.,.n 1 =.:.:.;.;.>.s.s.s.;.s.s.s.s.:.,.;.:.-.r u s.z.f.5.c.",
"x.M.x.m t i N o.Y - > = 3 7 0 x r 7 6 s 4 3 7 8 9 : ; , t N 6.B V M.",
"V Z g & + i P.&.} ] T I I ` $.R.y.` <.8.D I ] X.+...` ! j V A Z Z A ",
"& & $ O + i H.%.} ] T I I ` $.R.y.T y 7.D P ` X.+...` J p a & & & & ",
"$ $ $ $ $ a x.o.} ] T I I ` $.R.y.Y y 8.D I `  .+...` F $ $ $ $ $ $ ",
"V A A A V & g [ } ] T I I ` $.R.y.` w 7.D P ] X.+...` J d Z A A A A ",
"n.F.H.M.Z & & [ } ] T I I #.I.W.T.p.B 9.e P ] X.+...` K v M.K.K.P.K.",
"M.M.M.c.N $ a [ } ] T P ^ N.M.M.G.n.Z g p l W  .+...` K v c.F.M.n.M.",
"c.M.c.x.j $ i [ } ] T U C Z F.M.'.`.H.& j $ 7. .+...` K v c.M.n.c.n.",
"A x.c.c.g $ V o.} ] T 2.g P.'.c.& x.H.M.A Z i U.+...` K v x.n.b.A c.",
"x.n.c.Z a O F.*.| ' R g Z M.c.a B H.V X $ N g x &. .' H 6 j N V A c.",
"a g a & $ $ F.'.K.x.c g Z H.V a j N O     a & A P.G.Z p $ $ & $ & i ",
"$ a g N V g K.!.T.w.2.n.N P.'.Z & + o & X . N ].Q.Y.0.l & i i & $ + ",
"V H.`.`.K.Z P.u.*.@.~ n.i N `.b.& + + V p a N ].u.%.@.Q v A Z B j a ",
"V P.F.M.M.V P.E.B.8.z A i a g j j g O o N c.j L.I.w.1.k N n.H.H.c.i ",
"Z P.M.M.M.N K.i.( Q < p N c.N N H.P.a . O x.p v 4._ Q 8 N x.n.n.A i ",
"Z P.M.n.M.N M.%.} ] T x V K.P.`.{.H.& X i V a q.&...] J d V A Z N & ",
"Z P.n.M.M.N A o.} ] T ^ 7.n.`.[.}.H.j $ g a B t.+...` F # & i & & $ ",
"Z P.n.M.M.g g { } ] T R 4.v.n.H.M.x.g g $ c 3.o.+...` F 5 N Z Z V & ",
"Z P.F.n.b.i & [ } ] T I R _ v.P.[.`.Z x.N L '  .+...` K c K.'.'.x.& ",
"V K.M.M.x.& & [ } ] T I I ' $.R.a.W z 9.H P `  .+...` K v n.H.H.V $ ",
"j F.n.A g $ & [ } ] T I I ` $.R.y.T w 7.D P ] X.+...` K v c.V.M.V $ ",
"a N g a & $ i [ } ] T I I ` $.R.y.T w 7.D P ` X.+...` J v x.b.b.N O ",
"i g i + + $ & ' } ] T I I ` $.R.y.T w 7.D P ` X.+...` ! N A c.x.N + ",
"a c.n.c.Z j a [ } ` T I Y ` $.R.y.T w 7.D P ` X.+...` J h V V Z a O ",
"j P.P.`.`.P.F.o.} ` T I I ] $.R.y.T w 7.D I `  .+...` S @ + + + + & ",
"g K.F.F.M.F.P.e.W E K J G U / N.r.I 0 b * - T  .+...` : @ $ % % i a ",
"g H.n.n.x.x.c.Z N c j h d q w N <.< 2 a % % 9 ^ ) ~ ! w j Z Z Z V a ",
"i Z g a g g g a a a a p a a p i i & $ a Z Z Z N j A A c.n.F.F.M.c.& ",
"i i $ $ + + + + + + + + + + + + + + + i N g i & i V V V V V V N j $ ",
"$ + + O + O + O O O O O + O O O O O O + $ + O o O $ + + $ + + + + O "
};
